<mxfile host="app.diagrams.net" modified="2023-08-26T06:56:49.645Z" agent="Mozilla/5.0 (Windows NT 10.0; Win64; x64) AppleWebKit/537.36 (KHTML, like Gecko) Chrome/116.0.0.0 Safari/537.36" etag="A19Didtczhyzp3O9HFI4" version="21.5.2" type="github">
  <diagram name="Page-1" id="8g8lSp1v4i1WtWaQBoHX">
    <mxGraphModel dx="1050" dy="562" grid="1" gridSize="10" guides="1" tooltips="1" connect="1" arrows="1" fold="1" page="1" pageScale="1" pageWidth="850" pageHeight="1100" math="0" shadow="0">
      <root>
        <mxCell id="0" />
        <mxCell id="1" parent="0" />
        <mxCell id="9Wb89nYkp6LZOU4UXAiR-1" value="Director" style="shape=umlActor;verticalLabelPosition=bottom;verticalAlign=top;html=1;outlineConnect=0;" vertex="1" parent="1">
          <mxGeometry x="630" y="420" width="50" height="90" as="geometry" />
        </mxCell>
        <mxCell id="9Wb89nYkp6LZOU4UXAiR-2" value="" style="rounded=0;whiteSpace=wrap;html=1;" vertex="1" parent="1">
          <mxGeometry x="20" y="40" width="470" height="680" as="geometry" />
        </mxCell>
        <mxCell id="9Wb89nYkp6LZOU4UXAiR-3" value="View Institute" style="ellipse;whiteSpace=wrap;html=1;" vertex="1" parent="1">
          <mxGeometry x="178" y="200" width="140" height="70" as="geometry" />
        </mxCell>
        <mxCell id="9Wb89nYkp6LZOU4UXAiR-4" value="Manage Assigned Institute Staff" style="ellipse;whiteSpace=wrap;html=1;" vertex="1" parent="1">
          <mxGeometry x="178" y="310" width="140" height="70" as="geometry" />
        </mxCell>
        <mxCell id="9Wb89nYkp6LZOU4UXAiR-5" value="Add Departments" style="ellipse;whiteSpace=wrap;html=1;" vertex="1" parent="1">
          <mxGeometry x="178" y="500" width="140" height="70" as="geometry" />
        </mxCell>
        <mxCell id="9Wb89nYkp6LZOU4UXAiR-6" value="Login" style="ellipse;whiteSpace=wrap;html=1;" vertex="1" parent="1">
          <mxGeometry x="178" y="90" width="140" height="70" as="geometry" />
        </mxCell>
        <mxCell id="9Wb89nYkp6LZOU4UXAiR-7" value="Log Out" style="ellipse;whiteSpace=wrap;html=1;" vertex="1" parent="1">
          <mxGeometry x="170" y="600" width="140" height="70" as="geometry" />
        </mxCell>
        <mxCell id="9Wb89nYkp6LZOU4UXAiR-8" style="rounded=0;orthogonalLoop=1;jettySize=auto;html=1;endArrow=none;endFill=0;entryX=1;entryY=0.5;entryDx=0;entryDy=0;exitX=0.5;exitY=0.5;exitDx=0;exitDy=0;exitPerimeter=0;" edge="1" parent="1" source="9Wb89nYkp6LZOU4UXAiR-1" target="9Wb89nYkp6LZOU4UXAiR-6">
          <mxGeometry relative="1" as="geometry">
            <mxPoint x="550" y="400" as="targetPoint" />
            <mxPoint x="570" y="320" as="sourcePoint" />
          </mxGeometry>
        </mxCell>
        <mxCell id="9Wb89nYkp6LZOU4UXAiR-9" style="rounded=0;orthogonalLoop=1;jettySize=auto;html=1;endArrow=none;endFill=0;entryX=1;entryY=0.5;entryDx=0;entryDy=0;exitX=0.5;exitY=0.5;exitDx=0;exitDy=0;exitPerimeter=0;" edge="1" parent="1" source="9Wb89nYkp6LZOU4UXAiR-1" target="9Wb89nYkp6LZOU4UXAiR-3">
          <mxGeometry relative="1" as="geometry">
            <mxPoint x="338" y="145" as="targetPoint" />
            <mxPoint x="540" y="410" as="sourcePoint" />
          </mxGeometry>
        </mxCell>
        <mxCell id="9Wb89nYkp6LZOU4UXAiR-10" style="rounded=0;orthogonalLoop=1;jettySize=auto;html=1;endArrow=none;endFill=0;entryX=1;entryY=0.5;entryDx=0;entryDy=0;exitX=0.5;exitY=0.5;exitDx=0;exitDy=0;exitPerimeter=0;" edge="1" parent="1" source="9Wb89nYkp6LZOU4UXAiR-1" target="9Wb89nYkp6LZOU4UXAiR-4">
          <mxGeometry relative="1" as="geometry">
            <mxPoint x="348" y="155" as="targetPoint" />
            <mxPoint x="540" y="440" as="sourcePoint" />
          </mxGeometry>
        </mxCell>
        <mxCell id="9Wb89nYkp6LZOU4UXAiR-11" style="rounded=0;orthogonalLoop=1;jettySize=auto;html=1;endArrow=none;endFill=0;entryX=1;entryY=0.5;entryDx=0;entryDy=0;exitX=0.5;exitY=0.5;exitDx=0;exitDy=0;exitPerimeter=0;" edge="1" parent="1" source="9Wb89nYkp6LZOU4UXAiR-1" target="9Wb89nYkp6LZOU4UXAiR-5">
          <mxGeometry relative="1" as="geometry">
            <mxPoint x="378" y="185" as="targetPoint" />
            <mxPoint x="540" y="500" as="sourcePoint" />
          </mxGeometry>
        </mxCell>
        <mxCell id="9Wb89nYkp6LZOU4UXAiR-12" style="rounded=0;orthogonalLoop=1;jettySize=auto;html=1;endArrow=none;endFill=0;entryX=1;entryY=0.5;entryDx=0;entryDy=0;exitX=0.5;exitY=0.5;exitDx=0;exitDy=0;exitPerimeter=0;" edge="1" parent="1" source="9Wb89nYkp6LZOU4UXAiR-1" target="9Wb89nYkp6LZOU4UXAiR-7">
          <mxGeometry relative="1" as="geometry">
            <mxPoint x="388" y="195" as="targetPoint" />
            <mxPoint x="560" y="520" as="sourcePoint" />
          </mxGeometry>
        </mxCell>
        <mxCell id="9Wb89nYkp6LZOU4UXAiR-13" value="Resolve Complaints" style="ellipse;whiteSpace=wrap;html=1;" vertex="1" parent="1">
          <mxGeometry x="178" y="400" width="140" height="70" as="geometry" />
        </mxCell>
        <mxCell id="9Wb89nYkp6LZOU4UXAiR-14" style="rounded=0;orthogonalLoop=1;jettySize=auto;html=1;endArrow=none;endFill=0;entryX=0.966;entryY=0.32;entryDx=0;entryDy=0;exitX=0.5;exitY=0.5;exitDx=0;exitDy=0;exitPerimeter=0;entryPerimeter=0;" edge="1" parent="1" source="9Wb89nYkp6LZOU4UXAiR-1" target="9Wb89nYkp6LZOU4UXAiR-13">
          <mxGeometry relative="1" as="geometry">
            <mxPoint x="328" y="355" as="targetPoint" />
            <mxPoint x="665" y="475" as="sourcePoint" />
          </mxGeometry>
        </mxCell>
      </root>
    </mxGraphModel>
  </diagram>
</mxfile>
